<mxfile host="app.diagrams.net" modified="2023-05-05T14:37:47.817Z" agent="Mozilla/5.0 (Windows NT 10.0; Win64; x64) AppleWebKit/537.36 (KHTML, like Gecko) Chrome/112.0.0.0 Safari/537.36 Edg/112.0.1722.68" etag="S2QUQvUpj3ft1oockRW7" version="21.2.3" type="github">
  <diagram name="第 1 页" id="ukW6IRPNYCoX4CB_K7oK">
    <mxGraphModel dx="1750" dy="1343" grid="0" gridSize="10" guides="1" tooltips="1" connect="1" arrows="1" fold="1" page="0" pageScale="1" pageWidth="827" pageHeight="1169" math="0" shadow="0">
      <root>
        <mxCell id="0" />
        <mxCell id="1" parent="0" />
        <mxCell id="XJlU7_IvsuGNPYF5x57V-2" value="" style="whiteSpace=wrap;html=1;fillColor=#ffe6cc;strokeColor=#d79b00;" vertex="1" parent="1">
          <mxGeometry x="-260" y="-543" width="145" height="361" as="geometry" />
        </mxCell>
        <mxCell id="XJlU7_IvsuGNPYF5x57V-3" value="&lt;font color=&quot;#cc6600&quot;&gt;调用栈&lt;/font&gt;" style="text;html=1;align=center;verticalAlign=middle;resizable=0;points=[];autosize=1;strokeColor=none;fillColor=none;" vertex="1" parent="1">
          <mxGeometry x="-214.5" y="-535" width="54" height="26" as="geometry" />
        </mxCell>
        <mxCell id="XJlU7_IvsuGNPYF5x57V-4" value="" style="whiteSpace=wrap;html=1;fillColor=#dae8fc;strokeColor=#6c8ebf;" vertex="1" parent="1">
          <mxGeometry x="-90" y="-543" width="497" height="273" as="geometry" />
        </mxCell>
        <mxCell id="XJlU7_IvsuGNPYF5x57V-5" value="&lt;font color=&quot;#004c99&quot;&gt;内存&lt;/font&gt;" style="text;html=1;align=center;verticalAlign=middle;resizable=0;points=[];autosize=1;strokeColor=none;fillColor=none;fontColor=#003366;" vertex="1" parent="1">
          <mxGeometry x="137.5" y="-535" width="42" height="26" as="geometry" />
        </mxCell>
        <mxCell id="XJlU7_IvsuGNPYF5x57V-6" value="&lt;font color=&quot;#ff8000&quot;&gt;执行的代码&lt;/font&gt;" style="whiteSpace=wrap;html=1;fillColor=#fff2cc;strokeColor=#d6b656;" vertex="1" parent="1">
          <mxGeometry x="-245" y="-235" width="115" height="41" as="geometry" />
        </mxCell>
        <mxCell id="XJlU7_IvsuGNPYF5x57V-7" value="&lt;font color=&quot;#ff8000&quot;&gt;执行的代码&lt;/font&gt;" style="whiteSpace=wrap;html=1;fillColor=#fff2cc;strokeColor=#d6b656;" vertex="1" parent="1">
          <mxGeometry x="-245" y="-291" width="115" height="41" as="geometry" />
        </mxCell>
        <mxCell id="XJlU7_IvsuGNPYF5x57V-26" style="edgeStyle=orthogonalEdgeStyle;curved=1;rounded=0;orthogonalLoop=1;jettySize=auto;html=1;" edge="1" parent="1" source="XJlU7_IvsuGNPYF5x57V-8">
          <mxGeometry relative="1" as="geometry">
            <mxPoint x="-142" y="-635" as="targetPoint" />
            <Array as="points">
              <mxPoint x="-188" y="-480" />
              <mxPoint x="-151" y="-480" />
              <mxPoint x="-151" y="-613" />
            </Array>
          </mxGeometry>
        </mxCell>
        <mxCell id="XJlU7_IvsuGNPYF5x57V-29" value="①" style="edgeLabel;html=1;align=center;verticalAlign=middle;resizable=0;points=[];" vertex="1" connectable="0" parent="XJlU7_IvsuGNPYF5x57V-26">
          <mxGeometry x="0.5628" y="-2" relative="1" as="geometry">
            <mxPoint as="offset" />
          </mxGeometry>
        </mxCell>
        <mxCell id="XJlU7_IvsuGNPYF5x57V-8" value="&lt;font color=&quot;#ff8000&quot;&gt;执行的代码&lt;/font&gt;" style="whiteSpace=wrap;html=1;fillColor=#fff2cc;strokeColor=#d6b656;" vertex="1" parent="1">
          <mxGeometry x="-245" y="-348" width="115" height="41" as="geometry" />
        </mxCell>
        <mxCell id="XJlU7_IvsuGNPYF5x57V-9" value="" style="whiteSpace=wrap;html=1;fillColor=#d5e8d4;strokeColor=#82b366;" vertex="1" parent="1">
          <mxGeometry x="-90" y="-258" width="497" height="76" as="geometry" />
        </mxCell>
        <mxCell id="XJlU7_IvsuGNPYF5x57V-10" value="消息队列（任务队列）" style="text;html=1;align=center;verticalAlign=middle;resizable=0;points=[];autosize=1;strokeColor=none;fillColor=none;fontColor=#00994D;" vertex="1" parent="1">
          <mxGeometry x="89.5" y="-254" width="138" height="26" as="geometry" />
        </mxCell>
        <mxCell id="XJlU7_IvsuGNPYF5x57V-28" style="edgeStyle=orthogonalEdgeStyle;curved=1;rounded=0;orthogonalLoop=1;jettySize=auto;html=1;entryX=1.001;entryY=0.928;entryDx=0;entryDy=0;entryPerimeter=0;" edge="1" parent="1" source="XJlU7_IvsuGNPYF5x57V-12" target="XJlU7_IvsuGNPYF5x57V-2">
          <mxGeometry relative="1" as="geometry" />
        </mxCell>
        <mxCell id="XJlU7_IvsuGNPYF5x57V-12" value="" style="ellipse;whiteSpace=wrap;html=1;fillColor=#e1d5e7;strokeColor=#9673a6;" vertex="1" parent="1">
          <mxGeometry x="-66" y="-228" width="40" height="40" as="geometry" />
        </mxCell>
        <mxCell id="XJlU7_IvsuGNPYF5x57V-13" value="" style="ellipse;whiteSpace=wrap;html=1;fillColor=#e1d5e7;strokeColor=#9673a6;" vertex="1" parent="1">
          <mxGeometry x="-7" y="-228" width="40" height="40" as="geometry" />
        </mxCell>
        <mxCell id="XJlU7_IvsuGNPYF5x57V-14" value="" style="ellipse;whiteSpace=wrap;html=1;fillColor=#e1d5e7;strokeColor=#9673a6;" vertex="1" parent="1">
          <mxGeometry x="54" y="-228" width="40" height="40" as="geometry" />
        </mxCell>
        <mxCell id="XJlU7_IvsuGNPYF5x57V-31" value="②" style="text;strokeColor=none;align=center;fillColor=none;html=1;verticalAlign=middle;whiteSpace=wrap;rounded=0;" vertex="1" parent="1">
          <mxGeometry x="-108" y="-231.5" width="37" height="23" as="geometry" />
        </mxCell>
        <mxCell id="XJlU7_IvsuGNPYF5x57V-36" style="edgeStyle=orthogonalEdgeStyle;curved=1;rounded=0;orthogonalLoop=1;jettySize=auto;html=1;entryX=0.422;entryY=0.597;entryDx=0;entryDy=0;entryPerimeter=0;" edge="1" parent="1" source="XJlU7_IvsuGNPYF5x57V-35" target="XJlU7_IvsuGNPYF5x57V-9">
          <mxGeometry relative="1" as="geometry" />
        </mxCell>
        <mxCell id="XJlU7_IvsuGNPYF5x57V-35" value="&lt;div&gt;setTimeout(() =&amp;gt; {&lt;/div&gt;&lt;div&gt;&amp;nbsp; console.log(1);&lt;/div&gt;&lt;div&gt;}, 0);&amp;nbsp;&lt;/div&gt;" style="ellipse;whiteSpace=wrap;html=1;fillColor=#e1d5e7;strokeColor=#9673a6;" vertex="1" parent="1">
          <mxGeometry x="227.5" y="-134" width="131" height="131" as="geometry" />
        </mxCell>
        <mxCell id="XJlU7_IvsuGNPYF5x57V-40" style="edgeStyle=orthogonalEdgeStyle;curved=1;rounded=0;orthogonalLoop=1;jettySize=auto;html=1;" edge="1" parent="1" source="XJlU7_IvsuGNPYF5x57V-37">
          <mxGeometry relative="1" as="geometry">
            <mxPoint x="-276" y="-384" as="targetPoint" />
          </mxGeometry>
        </mxCell>
        <mxCell id="XJlU7_IvsuGNPYF5x57V-37" value="console.log(2);" style="whiteSpace=wrap;html=1;fillColor=#fff2cc;strokeColor=#d6b656;" vertex="1" parent="1">
          <mxGeometry x="-485" y="-396" width="115" height="41" as="geometry" />
        </mxCell>
      </root>
    </mxGraphModel>
  </diagram>
</mxfile>
